Coordinates
version=1
nRows=26
nColumns=30
inDegrees=yes

Units are S.I. units (second, meters, Newtons, ...)
Angles are in degrees.

endheader
time	floatyaw	floatroll	floatpitch	floatx	floaty	floatz	pro_sup_l	deviation_l	flexion_l	cmc_flexion_l	cmc_abduction_l	mp_flexion_l	ip_flexion_l	2mcp_flexion_l	2mcp_abduction_l	2pm_flexion_l	2md_flexion_l	3mcp_flexion_l	3mcp_abduction_l	3pm_flexion_l	3md_flexion_l	4mcp_flexion_l	4mcp_abduction_l	4pm_flexion_l	4md_flexion_l	5mcp_flexion_l	5mcp_abduction_l	5pm_flexion_l	5md_flexion_l
-0.495000	-160.147433	-5.066637	-73.570646	0.067483	-0.176362	-0.025990	103.989463	6.512478	-1.012967	14.249324	6.975142	-25.813150	-41.578231	32.149965	8.348861	43.875436	31.861311	26.295915	4.699134	47.088133	30.105041	15.962134	-4.666704	54.844506	37.221438	6.012385	-9.692039	64.352190	45.899616
-0.485000	-160.147433	-5.066637	-73.570646	0.067397	-0.176327	-0.026208	104.049407	6.441895	-1.004992	14.192299	7.059511	-25.845027	-41.653460	32.270178	8.372816	43.830343	32.004561	26.308536	4.710164	47.240420	30.216683	15.942361	-4.663564	55.015381	37.361589	6.164305	-9.717957	64.525450	46.028243
-0.475000	-160.147433	-5.066637	-73.570646	0.067293	-0.176249	-0.026485	104.123981	6.364092	-0.994701	14.130191	7.144615	-25.889000	-41.739701	32.343871	8.368811	43.775127	32.179918	26.310610	4.714515	47.341689	30.301260	15.921791	-4.657119	55.136962	37.463578	6.301723	-9.733897	64.656373	46.136372
-0.465000	-160.147433	-5.066637	-73.570646	0.067152	-0.176106	-0.026846	104.235850	6.290077	-0.969451	14.076039	7.215030	-25.949081	-41.842305	32.368709	8.346326	43.743187	32.367283	26.303028	4.710958	47.406520	30.350747	15.919894	-4.652801	55.199317	37.512183	6.418523	-9.740147	64.729618	46.206533
-0.455000	-160.147433	-5.066637	-73.570646	0.066950	-0.175863	-0.027320	104.411642	6.238255	-0.915254	14.047556	7.252620	-26.023420	-41.960074	32.356095	8.314914	43.758392	32.539104	26.293623	4.700671	47.447650	30.356911	15.962935	-4.654814	55.195116	37.503966	6.512553	-9.738168	64.746151	46.230800
-0.445000	-160.147433	-5.066637	-73.570646	0.066652	-0.175484	-0.027940	104.668420	6.232419	-0.821034	14.062020	7.246350	-26.104482	-42.087373	32.334106	8.284159	43.825242	32.673484	26.301537	4.686875	47.473332	30.315803	16.075501	-4.665073	55.125996	37.450049	6.589624	-9.730470	64.727283	46.216271
-0.435000	-160.147433	-5.066637	-73.570646	0.066215	-0.174935	-0.028742	105.001551	6.298430	-0.685927	14.129049	7.200158	-26.181688	-42.217769	32.342505	8.264257	43.928851	32.764471	26.355764	4.673621	47.489303	30.231103	16.271472	-4.682783	55.007128	37.373282	6.664362	-9.720181	64.707012	46.182765
-0.425000	-160.147433	-5.066637	-73.570646	0.065590	-0.174192	-0.029755	105.380099	6.460347	-0.527054	14.245126	7.131870	-26.246080	-42.347975	32.421347	8.264818	44.043376	32.824646	26.487245	4.664562	47.502035	30.114022	16.550562	-4.704700	54.865356	37.300376	6.757195	-9.710360	64.716235	46.154126
-0.415000	-160.147433	-5.066637	-73.570646	0.064727	-0.173244	-0.031008	105.752130	6.736818	-0.381927	14.392486	7.063023	-26.294464	-42.478899	32.597575	8.291335	44.144180	32.879047	26.717562	4.662156	47.520287	29.980411	16.902512	-4.725796	54.730304	37.252722	6.888886	-9.703430	64.769377	46.148590
-0.405000	-160.147433	-5.066637	-73.570646	0.063577	-0.172084	-0.032521	106.057555	7.138546	-0.300676	14.541641	7.006131	-26.330066	-42.611383	32.874665	8.341268	44.218280	32.952730	27.049769	4.667156	47.553473	29.847094	17.315328	-4.740020	54.622624	37.240079	7.075340	-9.701014	64.861984	46.173101
-0.395000	-160.147433	-5.066637	-73.570646	0.062092	-0.170697	-0.034308	106.242670	7.667537	-0.329628	14.655360	6.957786	-26.359014	-42.738360	33.229327	8.402709	44.268662	33.057284	27.466460	4.678032	47.606798	29.728639	17.781466	-4.741135	54.545060	37.259309	7.324664	-9.703558	64.977722	46.222684
-0.385000	-160.147433	-5.066637	-73.570646	0.060235	-0.169060	-0.036374	106.270550	8.318465	-0.494911	14.693818	6.902962	-26.385093	-42.839339	33.616938	8.457129	44.310258	33.183292	27.936575	4.690289	47.674786	29.634309	18.298613	-4.723903	54.478921	37.297408	7.636962	-9.709008	65.094598	46.282754
-0.375000	-160.147433	-5.066637	-73.570646	0.057971	-0.167133	-0.038717	106.125008	9.082137	-0.796252	14.622546	6.830141	-26.406277	-42.883067	33.983930	8.485125	44.359082	33.303509	28.426827	4.696399	47.736690	29.565124	18.866710	-4.685526	54.385036	37.336193	8.006462	-9.711414	65.182321	46.332201
-0.365000	-160.147433	-5.066637	-73.570646	0.055273	-0.164881	-0.041323	105.809965	9.950280	-1.214619	14.422986	6.750706	-26.414442	-42.838882	34.282531	8.472398	44.419947	33.385255	28.910180	4.687506	47.758213	29.512945	19.484869	-4.626666	54.208579	37.356459	8.425589	-9.702334	65.194417	46.347489
-0.355000	-160.147433	-5.066637	-73.570646	0.052111	-0.162279	-0.044181	105.347218	10.919384	-1.728117	14.101498	6.712393	-26.396720	-42.690504	34.482905	8.413671	44.479742	33.404801	29.366312	4.657208	47.702230	29.464217	20.149948	-4.551398	53.890130	37.341772	8.890599	-9.677051	65.068299	46.309496
-0.345000	-160.147433	-5.066637	-73.570646	0.048452	-0.159326	-0.047278	104.773454	11.990638	-2.325628	13.691713	6.797162	-26.336091	-42.443272	34.579312	8.314010	44.510809	33.356589	29.776430	4.605869	47.545960	29.407825	20.856025	-4.466235	53.384753	37.283343	9.407310	-9.642969	64.743297	46.212842
-0.335000	-160.147433	-5.066637	-73.570646	0.044261	-0.156053	-0.050603	104.135293	13.164841	-3.010096	13.249066	7.098564	-26.210752	-42.119373	34.588229	8.187955	44.483841	33.254514	30.119717	4.542565	47.295712	29.342244	21.593433	-4.378913	52.684442	37.185263	9.993151	-9.623126	64.191832	46.073031
-0.325000	-160.147433	-5.066637	-73.570646	0.039514	-0.152522	-0.054137	103.481668	14.434839	-3.789962	12.840798	7.682713	-25.994532	-41.742818	34.537834	8.056293	44.384121	33.126080	30.375918	4.482625	46.988538	29.276739	22.347069	-4.297437	51.832181	37.066076	10.671093	-9.648754	63.444672	45.924348
-0.315000	-160.147433	-5.066637	-73.570646	0.034212	-0.148824	-0.057854	102.855373	15.780427	-4.663451	12.534757	8.548822	-25.661722	-41.322516	34.451069	7.939935	44.221516	33.001099	30.531340	4.441249	46.676909	29.225919	23.094608	-4.229255	50.915765	36.952789	11.454296	-9.742119	62.590225	45.805135
-0.305000	-160.147433	-5.066637	-73.570646	0.028389	-0.145072	-0.061713	102.287385	17.169239	-5.603268	12.387546	9.612580	-25.197780	-40.845036	34.326709	7.852024	44.026831	32.897679	30.580976	4.426206	46.403875	29.201862	23.804472	-4.180014	50.039210	36.868202	12.325465	-9.899010	61.742548	45.736073
-0.295000	-160.147433	-5.066637	-73.570646	0.022122	-0.141393	-0.065660	101.796645	18.563111	-6.548714	12.432648	10.728031	-24.613395	-40.286341	34.123208	7.791706	43.836133	32.811328	30.521786	4.433472	46.182919	29.208591	24.432521	-4.151807	49.283358	36.817987	13.218674	-10.082447	60.993324	45.704488
-0.285000	-160.147433	-5.066637	-73.570646	0.015529	-0.137918	-0.069631	101.394931	19.926098	-7.409836	12.673161	11.741197	-23.954953	-39.641505	33.751674	7.743328	43.674410	32.715062	30.340049	4.448432	45.993222	29.240542	24.918820	-4.141850	48.675741	36.785525	14.013638	-10.233557	60.374866	45.666631
-0.275000	-160.147433	-5.066637	-73.570646	0.008762	-0.134775	-0.073551	101.093793	21.230197	-8.084690	13.085648	12.547048	-23.302578	-38.956383	33.086829	7.682473	43.550825	32.574739	30.003443	4.452439	45.791589	29.283995	25.190509	-4.143082	48.186490	36.738698	14.552769	-10.295708	59.855135	45.569499
-0.265000	-160.147433	-5.066637	-73.570646	0.001977	-0.132079	-0.077353	100.910231	22.457327	-8.485452	13.635808	13.119139	-22.751337	-38.337500	32.001145	7.587085	43.467324	32.374435	29.468375	4.431617	45.534664	29.320616	25.177013	-4.147293	47.753627	36.646230	14.684645	-10.240422	59.366278	45.380953
-0.255000	-160.147433	-5.066637	-73.570646	-0.004700	-0.129922	-0.080993	100.868984	23.598547	-8.563188	14.295886	13.500207	-22.381696	-37.926506	30.415045	7.449427	43.430199	32.137598	28.703440	4.383291	45.201952	29.333383	24.835840	-4.149358	47.324707	36.495335	14.322169	-10.082624	58.849363	45.111009
-0.245000	-160.147433	-5.066637	-73.570646	-0.011197	-0.128359	-0.084464	101.000483	24.652000	-8.319503	15.048890	13.766038	-22.234165	-37.847645	28.344491	7.283235	43.452542	31.928543	27.718393	4.316746	44.809991	29.314264	24.177691	-4.149995	46.891944	36.301205	13.489553	-9.878218	58.290836	44.812203
